<svg id="icon" xmlns="http://www.w3.org/2000/svg" viewBox="0 0 32 32"><defs><style>.cls-1{fill:#6973bf;}.cls-2{fill:none;}</style></defs><rect class="cls-1" x="20" y="18" width="6" height="2"/><rect class="cls-1" x="24" y="26" width="6" height="2"/><rect class="cls-1" x="22" y="22" width="6" height="2"/><path class="cls-1" d="M17,20a4.86,4.86,0,0,0-2.4-4.17L22,3,20.27,2,12.69,15.13a5.67,5.67,0,0,0-5.24,1.5C3.71,20.24,4,28.68,4,29a1,1,0,0,0,1,1H20a1,1,0,0,0,1-1,1,1,0,0,0-.4-.8C17.06,25.54,17,20.05,17,20Zm-5.07-3A3.1,3.1,0,0,1,15,20s0,.21,0,.47l-5.9-2.62A3.78,3.78,0,0,1,11.93,17Zm3.52,11A5.18,5.18,0,0,1,14,25H12a6.45,6.45,0,0,0,1,3H10.75A16.06,16.06,0,0,1,10,24H8a17,17,0,0,0,.67,4H6c0-1.84.29-5.89,1.8-8.55l7.54,3.35A13,13,0,0,0,17.6,28Z"/><rect id="_Transparent_Rectangle_" data-name=" Transparent Rectangle " class="cls-2" width="32" height="32"/></svg>