<?xml version="1.0" encoding="UTF-8"?><svg id="a" xmlns="http://www.w3.org/2000/svg" viewBox="0 0 35 35"><g id="b"><path d="M17.61,1.62c-8.84,0-15.99,7.18-15.99,16.01,0,3.93,1.45,7.72,4.07,10.65,.31,.37,.65,.73,1,1.06,.22,.21,.45,.42,.69,.62s.59,.46,.88,.66h-.65c-.55,0-1,.45-1,1s.45,1,1,1h3c.55,0,1-.45,1-1v-3c0-.55-.45-1-1-1s-1,.45-1,1v.47c-.3-.21-.61-.43-.93-.68s-.39-.34-.57-.52-.63-.61-.93-.94c-5.15-5.76-4.66-14.62,1.11-19.77,5.76-5.15,14.62-4.66,19.77,1.11,5.15,5.76,4.66,14.62-1.11,19.77-2.57,2.3-5.89,3.56-9.34,3.56-.94,0-1.88-.09-2.8-.28-.55-.11-1.09,.25-1.2,.8-.11,.55,.25,1.09,.8,1.2,8.68,1.64,17.05-4.07,18.69-12.75,1.64-8.68-4.07-17.05-12.75-18.69-.9-.17-1.82-.26-2.74-.28Z"/><path d="M27.61,17.62c0-5.52-4.48-10-10-10S7.61,12.09,7.61,17.62s4.48,10,10,10,10-4.48,10-10Zm-18,0c0-4.42,3.58-8,8-8s8,3.58,8,8-3.58,8-8,8-8-3.58-8-8Z"/><path d="M18.61,22.62v-.18c1.56-.57,2.36-2.29,1.8-3.84-.43-1.18-1.54-1.97-2.8-1.98-.55,0-1-.45-1-1s.45-1,1-1h2c.55,0,1-.45,1-1s-.45-1-1-1h-1c0-.55-.45-1-1-1s-1,.45-1,1v.18c-1.56,.57-2.36,2.29-1.8,3.84,.43,1.18,1.54,1.97,2.8,1.98,.55,0,1,.45,1,1s-.45,1-1,1h-2c-.55,0-1,.45-1,1s.45,1,1,1h1c0,.55,.45,1,1,1s1-.45,1-1Z"/></g></svg>