<svg id="a" xmlns="http://www.w3.org/2000/svg" viewBox="0 0 31.76 32"><defs><style>.cls-1{fill:#6973bf;}</style></defs><g id="b"><path class="cls-1" d="M16,0A16,16,0,0,0,4.07,26.66a12.53,12.53,0,0,0,1,1.06c.22.21.45.42.69.62s.59.46.88.66H6a1,1,0,0,0,0,2H9a1,1,0,0,0,1-1V27a1,1,0,0,0-2,0v.47c-.3-.21-.61-.43-.93-.68a4.56,4.56,0,0,1-.57-.52c-.18-.18-.63-.61-.93-.94A14,14,0,1,1,16,30a13.85,13.85,0,0,1-2.8-.28,1,1,0,0,0-.4,2A16,16,0,0,0,18.73.28,16.75,16.75,0,0,0,16,0Z"/><path class="cls-1" d="M26,16A10,10,0,1,0,16,26,10,10,0,0,0,26,16ZM8,16a8,8,0,1,1,8,8A8,8,0,0,1,8,16Z"/><path class="cls-1" d="M17,21v-.18A3,3,0,0,0,16,15a1,1,0,0,1,0-2h2a1,1,0,0,0,0-2H17a1,1,0,0,0-2,0v.18A3,3,0,0,0,16,17a1,1,0,0,1,0,2H14a1,1,0,0,0,0,2h1a1,1,0,1,0,2,0Z"/></g></svg>