<?xml version="1.0" encoding="UTF-8"?><svg id="a" xmlns="http://www.w3.org/2000/svg" viewBox="0 0 65 65"><path d="M24.3,43.3c-2.03,0-7.11-.07-10.28-.7h-1.8l.77,6.6c2.92,1.76,7.43-.25,9.87-2.03,0-.02,0-.04,0-.07,0-1.04,.84-1.88,1.88-1.88s1.88,.84,1.88,1.88-.84,1.88-1.88,1.88c-.16,0-.32-.03-.48-.07-.06,.07-.13,.15-.21,.21-2.82,2.07-7.21,3.72-10.75,2.65l.91,7.82h.04c.44,.84,4.7,1.5,9.89,1.5s9.45-.66,9.89-1.5h.04l1.99-17h-1.47c-3.18,.63-8.26,.7-10.28,.7Z"/><path d="M33.5,39.53L54.27,6.19c.44-.7,.22-1.63-.48-2.07-.7-.44-1.62-.22-2.06,.48L30.17,39.19l-.23,.38c-.12,.19-.18,.4-.21,.6-1.57-.1-3.39-.16-5.42-.16-6.53,0-10.81,.62-11.85,1.15,1.04,.52,5.32,1.15,11.85,1.15s10.81-.63,11.85-1.15c-.46-.23-1.57-.48-3.24-.69l.58-.94Z"/></svg>