<svg id="a" xmlns="http://www.w3.org/2000/svg" viewBox="0 0 512.03 512.05"><defs><style>.cls-1{fill:#6973bf;}</style></defs><path class="cls-1" d="M501.15,395.7,384.05,278.6a74.25,74.25,0,0,0-85.4-13.9L192.05,158.1V96L64.05,0,.05,64l96,128h62.1l106.6,106.6c-13.6,27.8-9.2,62.3,13.9,85.4l117.1,117.1a37.18,37.18,0,0,0,52.7,0l52.7-52.7a37.36,37.36,0,0,0,0-52.7ZM331.75,225a105.21,105.21,0,0,1,74.9,31l19.4,19.4a141.55,141.55,0,0,0,43.8-29.5,143.81,143.81,0,0,0,37.9-136.7,12,12,0,0,0-20.1-5.5l-74.4,74.4-67.9-11.3-11.3-67.9,74.4-74.4a12.07,12.07,0,0,0-5.7-20.2,144.05,144.05,0,0,0-136.6,37.9c-28.5,28.5-41.9,66.1-41.2,103.6l82.1,82.1a108.94,108.94,0,0,1,24.7-2.9Zm-103.9,82-56.7-56.7L18.75,402.8a64,64,0,0,0,90.5,90.5l123.6-123.6c-7.6-19.9-9.9-41.6-5-62.7ZM64.05,472a24,24,0,1,1,24-24A24.07,24.07,0,0,1,64.05,472Z"/></svg>