<?xml version="1.0" encoding="UTF-8"?><svg id="a" xmlns="http://www.w3.org/2000/svg" viewBox="0 0 525 525"><path d="M507.6,402.2l-117.1-117.1c-23.1-23.1-57.6-27.6-85.4-13.9l-106.6-106.6v-62.1L70.5,6.5,6.5,70.5,102.5,198.5h62.1l106.6,106.6c-13.6,27.8-9.2,62.3,13.9,85.4l117.1,117.1c14.6,14.6,38.2,14.6,52.7,0l52.7-52.7c14.5-14.6,14.5-38.2,0-52.7h0Zm-169.4-170.7c28.3,0,54.9,11,74.9,31l19.4,19.4c15.8-6.9,30.8-16.5,43.8-29.5,37.1-37.1,49.7-89.3,37.9-136.7-2.2-9-13.5-12.1-20.1-5.5l-74.4,74.4-67.9-11.3-11.3-67.9L414.9,31c6.6-6.6,3.4-17.9-5.7-20.2-47.4-11.7-99.6,.9-136.6,37.9-28.5,28.5-41.9,66.1-41.2,103.6l82.1,82.1c8.1-1.9,16.5-2.9,24.7-2.9h0Zm-103.9,82l-56.7-56.7L25.2,409.3C.2,434.3,.2,474.8,25.2,499.8s65.5,25,90.5,0l123.6-123.6c-7.6-19.9-9.9-41.6-5-62.7h0ZM70.5,478.5c-13.2,0-24-10.8-24-24s10.7-24,24-24,24,10.7,24,24-10.7,24-24,24Z"/></svg>